<?xml version="1.0" encoding="UTF-8" standalone="no"?>
<svg
   xmlns:dc="http://purl.org/dc/elements/1.1/"
   xmlns:cc="http://creativecommons.org/ns#"
   xmlns:rdf="http://www.w3.org/1999/02/22-rdf-syntax-ns#"
   xmlns:svg="http://www.w3.org/2000/svg"
   xmlns="http://www.w3.org/2000/svg"
   xmlns:xlink="http://www.w3.org/1999/xlink"
   xmlns:sodipodi="http://sodipodi.sourceforge.net/DTD/sodipodi-0.dtd"
   xmlns:inkscape="http://www.inkscape.org/namespaces/inkscape"
   width="475.09454"
   height="100"
   version="1.2"
   id="svg2"
   inkscape:version="0.91 r13725"
   sodipodi:docname="HTML_to_SVG (19).svg">
  <metadata
     id="metadata183">
    <rdf:RDF>
      <cc:Work
         rdf:about="">
        <dc:format>image/svg+xml</dc:format>
        <dc:type
           rdf:resource="http://purl.org/dc/dcmitype/StillImage" />
        <dc:title></dc:title>
      </cc:Work>
    </rdf:RDF>
  </metadata>
  <sodipodi:namedview
     pagecolor="#ffffff"
     bordercolor="#666666"
     borderopacity="1"
     objecttolerance="10"
     gridtolerance="10"
     guidetolerance="10"
     inkscape:pageopacity="0"
     inkscape:pageshadow="2"
     inkscape:window-width="1680"
     inkscape:window-height="987"
     id="namedview181"
     showgrid="false"
     fit-margin-top="0"
     fit-margin-left="0"
     fit-margin-right="0"
     fit-margin-bottom="0"
     inkscape:zoom="2.5047648"
     inkscape:cx="448.41295"
     inkscape:cy="49.600759"
     inkscape:window-x="-8"
     inkscape:window-y="-8"
     inkscape:window-maximized="1"
     inkscape:current-layer="svg2"
     units="px" />
  <desc
     id="desc4">Created by EvoPdf</desc>
  <defs
     id="defs6">
    <linearGradient
       gradientUnits="userSpaceOnUse"
       x1="-1.73"
       y1="63.369999"
       x2="112.85"
       y2="32.669998"
       id="gradient1">
      <stop
         offset="0.2"
         stop-color="#ff5800"
         stop-opacity="1"
         id="stop9" />
      <stop
         offset="0.24"
         stop-color="#ff7000"
         stop-opacity="1"
         id="stop11" />
      <stop
         offset="0.32"
         stop-color="#ff9500"
         stop-opacity="1"
         id="stop13" />
      <stop
         offset="0.4"
         stop-color="#ffb200"
         stop-opacity="1"
         id="stop15" />
      <stop
         offset="0.47"
         stop-color="#ffc600"
         stop-opacity="1"
         id="stop17" />
      <stop
         offset="0.55"
         stop-color="#ffd300"
         stop-opacity="1"
         id="stop19" />
      <stop
         offset="0.62"
         stop-color="#ffd700"
         stop-opacity="1"
         id="stop21" />
      <stop
         offset="0.66"
         stop-color="#ffce00"
         stop-opacity="1"
         id="stop23" />
      <stop
         offset="0.72"
         stop-color="#ffb600"
         stop-opacity="1"
         id="stop25" />
      <stop
         offset="0.81"
         stop-color="#ff8e00"
         stop-opacity="1"
         id="stop27" />
      <stop
         offset="0.9"
         stop-color="#ff5800"
         stop-opacity="1"
         id="stop29" />
    </linearGradient>
    <linearGradient
       gradientUnits="userSpaceOnUse"
       x1="2.3499999"
       y1="74.07"
       x2="122.24"
       y2="74.07"
       id="gradient2">
      <stop
         offset="0.09"
         stop-color="#ff5800"
         stop-opacity="1"
         id="stop32" />
      <stop
         offset="0.19"
         stop-color="#ff7907"
         stop-opacity="1"
         id="stop34" />
      <stop
         offset="0.31"
         stop-color="#ff990e"
         stop-opacity="1"
         id="stop36" />
      <stop
         offset="0.4"
         stop-color="#ffad12"
         stop-opacity="1"
         id="stop38" />
      <stop
         offset="0.47"
         stop-color="#ffb414"
         stop-opacity="1"
         id="stop40" />
      <stop
         offset="0.53"
         stop-color="#ffad12"
         stop-opacity="1"
         id="stop42" />
      <stop
         offset="0.62"
         stop-color="#ff980e"
         stop-opacity="1"
         id="stop44" />
      <stop
         offset="0.73"
         stop-color="#ff7707"
         stop-opacity="1"
         id="stop46" />
      <stop
         offset="0.82"
         stop-color="#ff5800"
         stop-opacity="1"
         id="stop48" />
    </linearGradient>
    <linearGradient
       gradientUnits="userSpaceOnUse"
       x1="2.8699999"
       y1="56.32"
       x2="125.83"
       y2="82.449997"
       id="gradient3">
      <stop
         offset="0.5"
         stop-color="#ff5800"
         stop-opacity="1"
         id="stop51" />
      <stop
         offset="0.64"
         stop-color="#ce056a"
         stop-opacity="0.988235"
         id="stop53" />
      <stop
         offset="0.76"
         stop-color="#cf0768"
         stop-opacity="0.988235"
         id="stop55" />
      <stop
         offset="0.81"
         stop-color="#d20d60"
         stop-opacity="0.988235"
         id="stop57" />
      <stop
         offset="0.85"
         stop-color="#d81753"
         stop-opacity="0.988235"
         id="stop59" />
      <stop
         offset="0.88"
         stop-color="#e12541"
         stop-opacity="0.988235"
         id="stop61" />
      <stop
         offset="0.91"
         stop-color="#ec3829"
         stop-opacity="1"
         id="stop63" />
      <stop
         offset="0.94"
         stop-color="#f94e0c"
         stop-opacity="1"
         id="stop65" />
      <stop
         offset="0.95"
         stop-color="#ff5800"
         stop-opacity="1"
         id="stop67" />
    </linearGradient>
    <linearGradient
       inkscape:collect="always"
       xlink:href="#gradient1"
       id="linearGradient4311"
       gradientUnits="userSpaceOnUse"
       x1="-1.73"
       y1="63.369999"
       x2="112.85"
       y2="32.669998" />
    <linearGradient
       inkscape:collect="always"
       xlink:href="#gradient1"
       id="linearGradient4313"
       gradientUnits="userSpaceOnUse"
       x1="-1.73"
       y1="63.369999"
       x2="112.85"
       y2="32.669998" />
    <linearGradient
       inkscape:collect="always"
       xlink:href="#gradient2"
       id="linearGradient4315"
       gradientUnits="userSpaceOnUse"
       x1="2.3499999"
       y1="74.07"
       x2="122.24"
       y2="74.07" />
    <linearGradient
       inkscape:collect="always"
       xlink:href="#gradient2"
       id="linearGradient4317"
       gradientUnits="userSpaceOnUse"
       x1="2.3499999"
       y1="74.07"
       x2="122.24"
       y2="74.07" />
    <linearGradient
       inkscape:collect="always"
       xlink:href="#gradient3"
       id="linearGradient4319"
       gradientUnits="userSpaceOnUse"
       x1="2.8699999"
       y1="56.32"
       x2="125.83"
       y2="82.449997" />
    <linearGradient
       inkscape:collect="always"
       xlink:href="#gradient3"
       id="linearGradient4321"
       gradientUnits="userSpaceOnUse"
       x1="2.8699999"
       y1="56.32"
       x2="125.83"
       y2="82.449997" />
  </defs>
  <g
     id="g69"
     style="fill:none;fill-rule:evenodd;stroke:#000000;stroke-width:1;stroke-linecap:square;stroke-linejoin:bevel"
     transform="matrix(7.4879114,0,0,7.4879114,-3596.2641,-59.895566)">
    <g
       stroke-miterlimit="2"
       id="g71"
       style="fill:#000000;fill-opacity:1;stroke:#000000;stroke-width:1;stroke-linecap:square;stroke-linejoin:miter;stroke-miterlimit:2;stroke-opacity:1" />
    <g
       stroke-miterlimit="2"
       id="g73"
       style="fill:#000000;fill-opacity:1;stroke:#000000;stroke-width:1;stroke-linecap:square;stroke-linejoin:miter;stroke-miterlimit:2;stroke-opacity:1" />
    <g
       stroke-miterlimit="2"
       id="g75"
       style="fill:#000000;fill-opacity:1;stroke:#000000;stroke-width:1;stroke-linecap:square;stroke-linejoin:miter;stroke-miterlimit:2;stroke-opacity:1" />
    <g
       stroke-miterlimit="2"
       id="g77"
       style="fill:#000000;fill-opacity:1;stroke:#000000;stroke-width:1;stroke-linecap:square;stroke-linejoin:miter;stroke-miterlimit:2;stroke-opacity:1" />
    <g
       stroke-miterlimit="2"
       transform="matrix(0.127166,0,0,0.127166,480.276,8)"
       id="g79"
       style="fill:#000000;fill-opacity:1;stroke:#000000;stroke-width:1;stroke-linecap:square;stroke-linejoin:miter;stroke-miterlimit:2;stroke-opacity:1" />
    <g
       transform="matrix(0.127166,0,0,0.127166,480.276,8)"
       id="g81"
       style="fill:#ff5800;fill-opacity:1;stroke:none">
      <path
         vector-effect="none"
         d="m 173.19,50.86 c -2.839,-0.0049 -5.671,0.2597 -8.46,0.79 -2.283,0.3702 -4.491,1.1063 -6.54,2.18 L 159,62 c 2.147,-0.6297 4.331,-1.124 6.54,-1.48 1.936,-0.2927 3.892,-0.4397 5.85,-0.44 7.447,0 11.17,2.85 11.17,8.55 l 0,1.92 c -2.422,-0.4004 -4.876,-0.5745 -7.33,-0.52 -6.52,0 -11.67,1.4533 -15.45,4.36 -3.737,2.8332 -5.854,7.3138 -5.67,12 0,10.4733 7.157,15.71 21.47,15.71 6.141,-0.047 12.247,-0.928 18.15,-2.62 l 0,-30 c 0.033,-12.4133 -6.813,-18.62 -20.54,-18.62 m 9.42,41.89 c -2.336,0.6124 -4.745,0.9051 -7.16,0.87 -6.747,0 -10.12,-2.4433 -10.12,-7.33 0,-5.12 3.723,-7.68 11.17,-7.68 2.051,-0.1002 4.106,0.0747 6.11,0.52 l 0,13.62"
         id="path83"
         inkscape:connector-curvature="0"
         style="fill-rule:nonzero" />
    </g>
    <g
       stroke-miterlimit="2"
       transform="matrix(0.127166,0,0,0.127166,480.276,8)"
       id="g85"
       style="fill:#000000;fill-opacity:1;stroke:#000000;stroke-width:1;stroke-linecap:square;stroke-linejoin:miter;stroke-miterlimit:2;stroke-opacity:1" />
    <g
       transform="matrix(0.127166,0,0,0.127166,480.276,8)"
       id="g87"
       style="fill:#ff5800;fill-opacity:1;stroke:none">
      <path
         vector-effect="none"
         d="m 198.84,52.08 12.39,0 12.04,37.7 12.22,-37.7 11.87,0 -18.5,48.87 -11.52,0 -18.5,-48.87"
         id="path89"
         inkscape:connector-curvature="0"
         style="fill-rule:nonzero" />
    </g>
    <g
       stroke-miterlimit="2"
       transform="matrix(0.127166,0,0,0.127166,480.276,8)"
       id="g91"
       style="fill:#000000;fill-opacity:1;stroke:#000000;stroke-width:1;stroke-linecap:square;stroke-linejoin:miter;stroke-miterlimit:2;stroke-opacity:1" />
    <g
       transform="matrix(0.127166,0,0,0.127166,480.276,8)"
       id="g93"
       style="fill:#ff5800;fill-opacity:1;stroke:none">
      <path
         vector-effect="none"
         d="m 269,50.86 c -2.839,-0.0048 -5.671,0.2597 -8.46,0.79 -2.283,0.3702 -4.491,1.1063 -6.54,2.18 l 0.87,8.2 c 2.147,-0.6297 4.331,-1.124 6.54,-1.48 1.936,-0.2926 3.892,-0.4397 5.85,-0.44 7.447,0 11.17,2.85 11.17,8.55 l 0,1.92 c -2.422,-0.4004 -4.876,-0.5745 -7.33,-0.52 -6.52,0 -11.67,1.4533 -15.45,4.36 -3.737,2.8332 -5.854,7.3138 -5.67,12 0,10.4733 7.157,15.71 21.47,15.71 6.141,-0.047 12.247,-0.928 18.15,-2.62 l 0,-30 C 289.593,57.0767 282.727,50.86 269,50.86 m 9.42,41.89 c -2.336,0.6124 -4.745,0.9051 -7.16,0.87 -6.747,0 -10.12,-2.4433 -10.12,-7.33 0,-5.12 3.723,-7.68 11.17,-7.68 2.051,-0.1002 4.106,0.0747 6.11,0.52 l 0,13.62"
         id="path95"
         inkscape:connector-curvature="0"
         style="fill-rule:nonzero" />
    </g>
    <g
       stroke-miterlimit="2"
       transform="matrix(0.127166,0,0,0.127166,480.276,8)"
       id="g97"
       style="fill:#000000;fill-opacity:1;stroke:#000000;stroke-width:1;stroke-linecap:square;stroke-linejoin:miter;stroke-miterlimit:2;stroke-opacity:1" />
    <g
       transform="matrix(0.127166,0,0,0.127166,480.276,8)"
       id="g99"
       style="fill:#ff5800;fill-opacity:1;stroke:none">
      <path
         vector-effect="none"
         d="m 332.8,72.15 c 0,-4.42 -0.843,-7.4733 -2.53,-9.16 -1.687,-1.6867 -4.687,-2.53 -9,-2.53 -1.257,0.0197 -2.511,0.1367 -3.75,0.35 -1.381,0.2172 -2.75,0.5076 -4.1,0.87 l 0,39.27 -11.34,0 0,-46.42 c 3.203,-1.2459 6.528,-2.1542 9.92,-2.71 3.572,-0.6395 7.191,-0.974 10.82,-1 14.193,0 21.29,6.4 21.29,19.2 l 0,30.89 -11.31,0 0,-28.76"
         id="path101"
         inkscape:connector-curvature="0"
         style="fill-rule:nonzero" />
    </g>
    <g
       stroke-miterlimit="2"
       transform="matrix(0.127166,0,0,0.127166,480.276,8)"
       id="g103"
       style="fill:#000000;fill-opacity:1;stroke:#000000;stroke-width:1;stroke-linecap:square;stroke-linejoin:miter;stroke-miterlimit:2;stroke-opacity:1" />
    <g
       transform="matrix(0.127166,0,0,0.127166,480.276,8)"
       id="g105"
       style="fill:#ff5800;fill-opacity:1;stroke:none">
      <path
         vector-effect="none"
         d="m 372.06,50.86 c -2.839,-0.0048 -5.671,0.2597 -8.46,0.79 -2.283,0.3702 -4.491,1.1063 -6.54,2.18 l 0.87,8.2 c 2.147,-0.6297 4.331,-1.124 6.54,-1.48 1.936,-0.2926 3.892,-0.4397 5.85,-0.44 7.447,0 11.17,2.85 11.17,8.55 l 0,1.92 c -2.422,-0.4004 -4.876,-0.5745 -7.33,-0.52 -6.52,0 -11.67,1.4533 -15.45,4.36 -3.737,2.8331 -5.854,7.3138 -5.67,12 0,10.4733 7.157,15.71 21.47,15.71 6.141,-0.047 12.247,-0.928 18.15,-2.62 l 0,-30 c 0,-12.4333 -6.867,-18.65 -20.6,-18.65 m 9.42,41.89 c -2.336,0.6124 -4.745,0.9051 -7.16,0.87 -6.747,0 -10.12,-2.4433 -10.12,-7.33 0,-5.12 3.723,-7.68 11.17,-7.68 2.051,-0.1002 4.106,0.0747 6.11,0.52 l 0,13.62"
         id="path107"
         inkscape:connector-curvature="0"
         style="fill-rule:nonzero" />
    </g>
    <g
       stroke-miterlimit="2"
       transform="matrix(0.127166,0,0,0.127166,480.276,8)"
       id="g109"
       style="fill:#000000;fill-opacity:1;stroke:#000000;stroke-width:1;stroke-linecap:square;stroke-linejoin:miter;stroke-miterlimit:2;stroke-opacity:1" />
    <g
       transform="matrix(0.127166,0,0,0.127166,480.276,8)"
       id="g111"
       style="fill:#ff5800;fill-opacity:1;stroke:none">
      <path
         vector-effect="none"
         d="m 434.89,33.23 0,18.68 c -2.664,-0.7593 -5.431,-1.0967 -8.2,-1 -7.447,0 -13.497,2.4133 -18.15,7.24 -4.653,4.8267 -6.987,11.14 -7,18.94 0,8.1467 2.27,14.37 6.81,18.67 4.54,4.3 11.173,6.453 19.9,6.46 6.088,-0.086 12.14,-0.966 18,-2.62 l 0,-66.37 -11.36,0 m 0,58.81 c -2.285,0.5849 -4.645,0.8209 -7,0.7 -9.66,0 -14.49,-5.2933 -14.49,-15.88 0,-5.3333 1.25,-9.4633 3.75,-12.39 2.5,-2.9267 6.02,-4.38 10.56,-4.36 2.443,-0.0624 4.875,0.352 7.16,1.22 l 0.02,30.71"
         id="path113"
         inkscape:connector-curvature="0"
         style="fill-rule:nonzero" />
    </g>
    <g
       stroke-miterlimit="2"
       transform="matrix(0.127166,0,0,0.127166,480.276,8)"
       id="g115"
       style="fill:#000000;fill-opacity:1;stroke:#000000;stroke-width:1;stroke-linecap:square;stroke-linejoin:miter;stroke-miterlimit:2;stroke-opacity:1" />
    <g
       transform="matrix(0.127166,0,0,0.127166,480.276,8)"
       id="g117"
       style="fill:#ff5800;fill-opacity:1;stroke:none">
      <path
         vector-effect="none"
         d="m 498.94,73.9 c 0,-7.0933 -1.86,-12.7067 -5.58,-16.84 -3.72,-4.1333 -8.78,-6.2 -15.18,-6.2 -6.98,0 -12.537,2.3333 -16.67,7 -4.133,4.6667 -6.2,11 -6.2,19 0,8 2.21,14.2233 6.63,18.67 4.42,4.4467 10.703,6.657 18.85,6.63 5.2,0.036 10.359,-0.907 15.21,-2.78 l -1.22,-8.55 c -4.217,1.418 -8.641,2.1244 -13.09,2.09 -9.56,0 -14.457,-4.3067 -14.69,-12.92 l 31.94,0 0,-6.1 M 467,71.45 c 0.139,-3.2054 1.335,-6.2748 3.4,-8.73 1.893,-2.0841 4.606,-3.2321 7.42,-3.14 2.79,-0.1014 5.479,1.0505 7.33,3.14 1.86,2.0933 2.79,5.0033 2.79,8.73 l -20.94,0"
         id="path119"
         inkscape:connector-curvature="0"
         style="fill-rule:nonzero" />
    </g>
    <g
       stroke-miterlimit="2"
       transform="matrix(0.127166,0,0,0.127166,480.276,8)"
       id="g121"
       style="fill:#000000;fill-opacity:1;stroke:#000000;stroke-width:1;stroke-linecap:square;stroke-linejoin:miter;stroke-miterlimit:2;stroke-opacity:1" />
    <g
       transform="matrix(0.127166,0,0,0.127166,480.276,8)"
       id="g123"
       style="fill:url(#linearGradient4313);stroke:none">
      <path
         vector-effect="none"
         d="m 32.79,31.2 c -3.8533,7.5067 -6.9767,13.5067 -9.37,18 -1.9707,3.7641 -4.175,7.4012 -6.6,10.89 -1.7958,2.5735 -3.9433,4.8826 -6.38,6.86 -2.73179,2.1079 -5.57959,4.0609 -8.53,5.85 L 0,69.84 c 2.18667,-1.6067 4.14667,-3.1967 5.88,-4.77 2.09314,-1.9819 3.97336,-4.1771 5.61,-6.55 2.5137,-3.6143 4.8336,-7.3596 6.95,-11.22 2.6267,-4.6667 5.8733,-11 9.74,-19 2.2972,-4.8915 4.9336,-9.6164 7.89,-14.14 2.0533,-3.1642 4.4698,-6.0773 7.2,-8.68 C 45.2244,3.6255 47.5065,2.15045 50,1.13 52.0949,0.31428 54.333,-0.0700666 56.58,9.95398e-7 58.7741,0.092382 60.927,0.626363 62.91,1.57 c 2.6498,1.42769 4.9833,3.3768 6.86,5.73 3.1468,3.8182 5.929,7.9228 8.31,12.26 3.0667,5.3333 6.69,12.3333 10.87,21 2.2848,4.8106 4.8457,9.485 7.67,14 2.0874,3.3782 4.564,6.4996 7.38,9.3 2.449,2.381 5.24,4.3831 8.28,5.94 3.298,1.6425 6.739,2.9814 10.28,4 l 2.44,4.11 c -4.262,-0.4072 -8.461,-1.3169 -12.51,-2.71 -3.742,-1.3589 -7.202,-3.3925 -10.21,-6 -3.4873,-3.0643 -6.5599,-6.5706 -9.14,-10.43 -3.42,-5.1058 -6.4647,-10.4532 -9.11,-16 -3.8733,-7.7733 -7.1567,-14.1067 -9.85,-19 C 72.0647,19.821 69.665,16.031 67,12.43 65.4832,10.2653 63.5817,8.3976 61.39,6.92 59.876,6.00477 58.1573,5.48229 56.39,5.4 54.5793,5.34108 52.7804,5.71115 51.14,6.48 c -2.0421,1.03924 -3.8625,2.46572 -5.36,4.2 -2.2292,2.4868 -4.2368,5.1637 -6,8 -2.1333,3.38 -4.4633,7.5533 -6.99,12.52"
         id="path125"
         inkscape:connector-curvature="0"
         style="fill:url(#linearGradient4311);fill-rule:nonzero" />
    </g>
    <g
       stroke-miterlimit="2"
       transform="matrix(0.127166,0,0,0.127166,480.276,8)"
       id="g127"
       style="fill:#000000;fill-opacity:1;stroke:#000000;stroke-width:1;stroke-linecap:square;stroke-linejoin:miter;stroke-miterlimit:2;stroke-opacity:1" />
    <g
       stroke-miterlimit="2"
       transform="matrix(0.127166,0,0,0.127166,480.276,8)"
       id="g129"
       style="fill:#000000;fill-opacity:1;stroke:#000000;stroke-width:1;stroke-linecap:square;stroke-linejoin:miter;stroke-miterlimit:2;stroke-opacity:1" />
    <g
       transform="matrix(0.127166,0,0,0.127166,480.276,8)"
       id="g131"
       style="fill:url(#linearGradient4317);stroke:none">
      <path
         vector-effect="none"
         d="m 90.08,80.4 c 5.627,0.2052 11.261,-0.0759 16.84,-0.84 5.021,-0.6454 9.963,-1.8014 14.75,-3.45 l 0.57,3.05 c -7.68,4.9 -18.46,7.1067 -32.34,6.62 C 84.4255,85.6706 78.9809,84.9427 73.67,83.61 69.5035,82.5271 65.4462,81.0609 61.55,79.23 58.8833,78.0167 56.35,76.75 53.95,75.43 51.55,74.11 49.0967,72.9 46.59,71.8 44.1234,70.7031 41.588,69.7678 39,69 c -2.6945,-0.779 -5.4764,-1.2157 -8.28,-1.3 -4.433,-0.137 -8.868,0.1982 -13.23,1 -4.5078,0.8007 -8.93056,2.0227 -13.21001,3.65 L 2.35,70.09 5.94,68.36 c 3.70143,-2.1187 7.6941,-3.6821 11.85,-4.64 4.2758,-1.0608 8.6766,-1.5318 13.08,-1.4 3.1347,0.0869 6.2488,0.5365 9.28,1.34 2.7564,0.7463 5.4483,1.7128 8.05,2.89 2.5333,1.16 5.0667,2.4267 7.6,3.8 2.5333,1.3733 5.1767,2.6733 7.93,3.9 3.6551,1.6339 7.4212,3.0073 11.27,4.11 4.9266,1.2825 9.9897,1.9674 15.08,2.04"
         id="path133"
         inkscape:connector-curvature="0"
         style="fill:url(#linearGradient4315);fill-rule:nonzero" />
    </g>
    <g
       stroke-miterlimit="2"
       transform="matrix(0.127166,0,0,0.127166,480.276,8)"
       id="g135"
       style="fill:#000000;fill-opacity:1;stroke:#000000;stroke-width:1;stroke-linecap:square;stroke-linejoin:miter;stroke-miterlimit:2;stroke-opacity:1" />
    <g
       stroke-miterlimit="2"
       transform="matrix(0.127166,0,0,0.127166,480.276,8)"
       id="g137"
       style="fill:#000000;fill-opacity:1;stroke:#000000;stroke-width:1;stroke-linecap:square;stroke-linejoin:miter;stroke-miterlimit:2;stroke-opacity:1" />
    <g
       transform="matrix(0.127166,0,0,0.127166,480.276,8)"
       id="g139"
       style="fill:url(#linearGradient4321);stroke:none">
      <path
         vector-effect="none"
         d="m 98.25,39.22 c -2.0153,-0.071 -4.0114,0.4133 -5.77,1.4 -2.4041,1.5011 -4.5431,3.39 -6.33,5.59 -3.0274,3.5698 -5.8263,7.3273 -8.38,11.25 C 74.59,62.24 70.62,68.42 65.86,76 59.4467,86.3467 53.4933,93.8133 48,98.4 c -5.4933,4.587 -11.2533,6.787 -17.28,6.6 -6.38,-0.22 -12.38,-3.407 -18,-9.56 C 7.1,89.2867 2.86,80.7533 0,69.84 l 5.34,1 c 2.94667,8.6667 6.6833,15.5667 11.21,20.7 4.5267,5.1333 9.31,7.8 14.35,8 4.7,0.1667 9.45,-1.8033 14.25,-5.91 4.8,-4.1067 10.1067,-10.82 15.92,-20.14 5.2267,-8.3267 9.61,-15.1133 13.15,-20.36 2.8153,-4.2643 5.9368,-8.3184 9.34,-12.13 2.0638,-2.4228 4.594,-4.4055 7.44,-5.83 2.348,-0.9994 4.8909,-1.4574 7.44,-1.34 6.047,0.2133 11.413,3.8267 16.1,10.84 4.687,7.0133 8.84,17.7233 12.46,32.13 l -5.8,-2.39 c -3.62,-11.9267 -7.287,-20.7367 -11,-26.43 -3.713,-5.6933 -7.697,-8.6133 -11.95,-8.76"
         id="path141"
         inkscape:connector-curvature="0"
         style="fill:url(#linearGradient4319);fill-rule:nonzero" />
    </g>
    <g
       stroke-miterlimit="2"
       transform="matrix(0.127166,0,0,0.127166,480.276,8)"
       id="g143"
       style="fill:#000000;fill-opacity:1;stroke:#000000;stroke-width:1;stroke-linecap:square;stroke-linejoin:miter;stroke-miterlimit:2;stroke-opacity:1" />
    <g
       stroke-miterlimit="2"
       transform="matrix(0.127166,0,0,0.127166,480.276,8)"
       id="g145"
       style="fill:#000000;fill-opacity:1;stroke:#000000;stroke-width:1;stroke-linecap:square;stroke-linejoin:miter;stroke-miterlimit:2;stroke-opacity:1" />
    <g
       stroke-miterlimit="2"
       transform="matrix(0.127166,0,0,0.127166,480.276,8)"
       id="g147"
       style="fill:#000000;fill-opacity:1;stroke:#000000;stroke-width:1;stroke-linecap:square;stroke-linejoin:miter;stroke-miterlimit:2;stroke-opacity:1" />
    <g
       stroke-miterlimit="2"
       transform="matrix(0.127166,0,0,0.127166,480.276,8)"
       id="g149"
       style="fill:#000000;fill-opacity:1;stroke:#000000;stroke-width:1;stroke-linecap:square;stroke-linejoin:miter;stroke-miterlimit:2;stroke-opacity:1" />
    <g
       stroke-miterlimit="2"
       transform="matrix(0.127166,0,0,0.127166,480.276,8)"
       id="g151"
       style="fill:#000000;fill-opacity:1;stroke:#000000;stroke-width:1;stroke-linecap:square;stroke-linejoin:miter;stroke-miterlimit:2;stroke-opacity:1" />
    <g
       stroke-miterlimit="2"
       id="g153"
       style="fill:#000000;fill-opacity:1;stroke:#000000;stroke-width:1;stroke-linecap:square;stroke-linejoin:miter;stroke-miterlimit:2;stroke-opacity:1" />
    <g
       stroke-miterlimit="2"
       id="g155"
       style="fill:#000000;fill-opacity:1;stroke:#000000;stroke-width:1;stroke-linecap:square;stroke-linejoin:miter;stroke-miterlimit:2;stroke-opacity:1" />
    <g
       stroke-miterlimit="2"
       id="g157"
       style="fill:#000000;fill-opacity:1;stroke:#000000;stroke-width:1;stroke-linecap:square;stroke-linejoin:miter;stroke-miterlimit:2;stroke-opacity:1" />
    <g
       stroke-miterlimit="2"
       id="g159"
       style="fill:#000000;fill-opacity:1;stroke:#000000;stroke-width:1;stroke-linecap:square;stroke-linejoin:miter;stroke-miterlimit:2;stroke-opacity:1" />
    <g
       stroke-miterlimit="2"
       transform="matrix(0.127166,0,0,0.127166,480.276,8)"
       id="g161"
       style="fill:#000000;fill-opacity:1;stroke:#000000;stroke-width:1;stroke-linecap:square;stroke-linejoin:miter;stroke-miterlimit:2;stroke-opacity:1" />
    <g
       stroke-miterlimit="2"
       transform="matrix(0.127166,0,0,0.127166,480.276,8)"
       id="g163"
       style="fill:#000000;fill-opacity:1;stroke:#000000;stroke-width:1;stroke-linecap:square;stroke-linejoin:miter;stroke-miterlimit:2;stroke-opacity:1" />
    <g
       stroke-miterlimit="2"
       transform="matrix(0.127166,0,0,0.127166,480.276,8)"
       id="g165"
       style="fill:#000000;fill-opacity:1;stroke:#000000;stroke-width:1;stroke-linecap:square;stroke-linejoin:miter;stroke-miterlimit:2;stroke-opacity:1" />
    <g
       stroke-miterlimit="2"
       transform="matrix(0.127166,0,0,0.127166,480.276,8)"
       id="g167"
       style="fill:#000000;fill-opacity:1;stroke:#000000;stroke-width:1;stroke-linecap:square;stroke-linejoin:miter;stroke-miterlimit:2;stroke-opacity:1" />
    <g
       stroke-miterlimit="2"
       id="g169"
       style="fill:#000000;fill-opacity:1;stroke:#000000;stroke-width:1;stroke-linecap:square;stroke-linejoin:miter;stroke-miterlimit:2;stroke-opacity:1" />
    <g
       stroke-miterlimit="2"
       id="g171"
       style="fill:#000000;fill-opacity:1;stroke:#000000;stroke-width:1;stroke-linecap:square;stroke-linejoin:miter;stroke-miterlimit:2;stroke-opacity:1" />
    <g
       stroke-miterlimit="2"
       id="g173"
       style="fill:#000000;fill-opacity:1;stroke:#000000;stroke-width:1;stroke-linecap:square;stroke-linejoin:miter;stroke-miterlimit:2;stroke-opacity:1" />
    <g
       stroke-miterlimit="2"
       id="g175"
       style="fill:#000000;fill-opacity:1;stroke:#000000;stroke-width:1;stroke-linecap:square;stroke-linejoin:miter;stroke-miterlimit:2;stroke-opacity:1" />
    <g
       stroke-miterlimit="2"
       id="g177"
       style="fill:#000000;fill-opacity:1;stroke:#000000;stroke-width:1;stroke-linecap:square;stroke-linejoin:miter;stroke-miterlimit:2;stroke-opacity:1" />
    <g
       stroke-miterlimit="2"
       id="g179"
       style="fill:#000000;fill-opacity:1;stroke:#000000;stroke-width:1;stroke-linecap:square;stroke-linejoin:miter;stroke-miterlimit:2;stroke-opacity:1" />
  </g>
</svg>
